 http://img508.imageshack.us/img508/7215/tracymorganblackandbluel.jpg

Country.......: USA
Genre.........: Comedy, Show
Date release..: 13.11.2010 [World]
Director......: John Moffitt
Writers.......: Tracy Morgan
Duration......: 57 min.
More..........: http://www.imdb.com/title/tt1772407
Trailer.......:

Pilot :
Emmy nominated comedian/actor Tracy Morgan star of 30 Rock and a former cast regular on Saturday Night Live – stars in his first-ever HBO stand-up special, Black and Blue, an hour of adults-only humor told in the quirky, shocking, matter-of-fact style that has earned Morgan a place in the upper echelon of today’s most sought-after comedians. Taped before a live audience at the Apollo Theatre in New York City, the stand-up special will feature Morgan’s comedic takes on politics (including meeting President Obama), the differences between white and black culture, celebrities, our Founding Fathers, sex, superheroes and more.

Cats :
Tracy Morgan   	 ...  	Himself
Marvin McClellan 	... 	Himself Announcer (voice) 

Data Technical :
!!! SAMPLE !!!
Audio.....: English
Subtitles.: None
Format                           : AVI
Format/Info                      : Audio Video Interleave
File size                        : 698 MiB
Duration                         : 57mn 28s
Overall bit rate                 : 1 697 Kbps
Writing application              : VirtualDubMod 1.5.10.2 (build 2540/release)
Writing library                  : VirtualDubMod build 2540/release
Video
ID                               : 0
Format                           : MPEG-4 Visual
Format profile                   : Advanced Simple@L5
Format settings, BVOP            : Yes
Format settings, QPel            : No
Format settings, GMC             : No warppoints
Format settings, Matrix          : Default (H.263)
Muxing mode                      : Packed bitstream
Codec ID                         : XVID
Codec ID/Hint                    : XviD
Duration                         : 57mn 28s
Bit rate                         : 1 493 Kbps
Width                            : 624 pixels
Height                           : 352 pixels
Display aspect ratio             : 16:9
Frame rate                       : 29.970 fps
Color space                      : YUV
Chroma subsampling               : 4:2:0
Bit depth                        : 8 bits
Scan type                        : Progressive
Bits/(Pixel*Frame)               : 0.227
Stream size                      : 614 MiB (88%)
Writing library                  : XviD 1.2.0.dev49
Audio
ID                               : 1
Format                           : AC-3
Format/Info                      : Audio Coding 3
Format profile                   : Dolby Digital
Mode extension                   : CM (complete main)
Codec ID                         : 2000
Duration                         : 57mn 28s
Bit rate mode                    : Constant
Bit rate                         : 192 Kbps
Channel(s)                       : 2 channels
Channel positions                : Front: L R
Sampling rate                    : 48.0 KHz
Bit depth                        : 16 bits
Stream size                      : 78.9 MiB (11%)
Alignment                        : Split accross interleaves
Interleave, duration             : 33 ms (1.00 video frame)
Interleave, preload duration     : 500 ms

Screen : 
http://img801.imageshack.us/img801/8960/tracymorganblackandblue.jpg 
http://img703.imageshack.us/img703/8960/tracymorganblackandblue.jpg 
http://img193.imageshack.us/img193/8960/tracymorganblackandblue.jpg 
http://img9.imageshack.us/img9/8960/tracymorganblackandblue.jpg 
http://img545.imageshack.us/img545/8960/tracymorganblackandblue.jpg